<svg width="24" height="24" viewBox="0 0 24 24" fill="none" xmlns="http://www.w3.org/2000/svg">
<path d="M19.6575 3.00001H4.3425C3.99354 2.99791 3.65764 3.13253 3.40671 3.37505C3.15579 3.61756 3.0098 3.94868 3 4.29751V19.65C3.00788 19.9995 3.15327 20.3317 3.40461 20.5746C3.65596 20.8176 3.99297 20.9515 4.3425 20.9475H19.6575C20.007 20.9515 20.344 20.8176 20.5954 20.5746C20.8467 20.3317 20.9921 19.9995 21 19.65V4.29751C20.9902 3.94868 20.8442 3.61756 20.5933 3.37505C20.3424 3.13253 20.0065 2.99791 19.6575 3.00001ZM8.3325 18.3075H5.6925V9.75001H8.3325V18.3075ZM7.0425 8.55751C6.63717 8.55763 6.24786 8.39922 5.95777 8.11613C5.66767 7.83304 5.49979 7.44772 5.49 7.04251C5.48266 6.83666 5.5178 6.6315 5.59322 6.43982C5.66864 6.24814 5.78273 6.07405 5.92839 5.9284C6.07404 5.78274 6.24813 5.66865 6.43981 5.59323C6.63149 5.5178 6.83665 5.48267 7.0425 5.49001C7.43463 5.51731 7.80181 5.69235 8.06993 5.97979C8.33805 6.26723 8.48716 6.64568 8.48716 7.03876C8.48716 7.43184 8.33805 7.81029 8.06993 8.09773C7.80181 8.38517 7.43463 8.5602 7.0425 8.58751V8.55751ZM18.36 18.255H15.75V14.07C15.75 13.0725 15.75 11.775 14.355 11.775C12.96 11.775 12.75 12.87 12.75 13.9725V18.21H10.08V9.75001H12.57V10.875H12.6225C12.8777 10.4318 13.2499 10.0672 13.6983 9.82121C14.1467 9.57519 14.6541 9.45715 15.165 9.48001C17.8575 9.48001 18.36 11.28 18.36 13.5675V18.255Z" fill="white"/>
</svg>
