<svg width="125" height="57" viewBox="0 0 125 57" fill="none" xmlns="http://www.w3.org/2000/svg">
<path fill-rule="evenodd" clip-rule="evenodd" d="M50.1885 51.3365C45.4884 54.846 38.6737 56.7126 32.806 56.7126C24.5817 56.7126 17.1763 53.6371 11.5716 48.5167C11.1316 48.1149 11.5242 47.5655 12.053 47.877C18.0994 51.4371 25.5766 53.581 33.2996 53.581C38.5093 53.581 44.2361 52.4871 49.5055 50.2259C50.3002 49.8845 50.9665 50.7557 50.1885 51.3365" fill="#444444"/>
<path fill-rule="evenodd" clip-rule="evenodd" d="M52.1448 49.0776C51.5433 48.2986 48.1703 48.7083 46.6554 48.8917C46.1964 48.9474 46.1251 48.5419 46.539 48.248C49.2294 46.3359 53.6379 46.8882 54.1503 47.5279C54.6669 48.1738 54.0154 52.646 51.4936 54.7802C51.1056 55.1086 50.737 54.9336 50.9088 54.4997C51.476 53.0661 52.7464 49.8566 52.1448 49.0776" fill="#444444"/>
<path fill-rule="evenodd" clip-rule="evenodd" d="M46.7622 34.7408V32.883C46.7633 32.6003 46.9741 32.4118 47.2277 32.4124L55.4579 32.4115C55.7209 32.4115 55.9322 32.6052 55.9328 32.8807L55.9322 34.4741C55.9302 34.7414 55.7078 35.0902 55.3125 35.6437L51.0494 41.802C52.6319 41.7647 54.3059 42.004 55.7439 42.8218C56.0679 43.006 56.1549 43.2793 56.1804 43.5471V45.5293C56.1804 45.8026 55.885 46.1187 55.5746 45.9543C53.0412 44.6118 49.6796 44.4647 46.8786 45.9704C46.5924 46.1247 46.2927 45.8132 46.2927 45.5399V43.6555C46.2927 43.354 46.2984 42.8382 46.5989 42.3784L51.5382 35.2092L47.2376 35.2086C46.9749 35.2086 46.7639 35.019 46.7622 34.7408" fill="#444444"/>
<path fill-rule="evenodd" clip-rule="evenodd" d="M16.7408 46.3448H14.2372C13.9989 46.329 13.8083 46.1477 13.7893 45.9167L13.791 32.9146C13.791 32.6546 14.0071 32.4465 14.2741 32.4465L16.6059 32.446C16.8499 32.4586 17.0458 32.6454 17.0612 32.8825V34.5802H17.108C17.7158 32.9385 18.861 32.1724 20.4034 32.1724C21.9692 32.1724 22.9511 32.9385 23.6523 34.5802C24.2598 32.9385 25.6387 32.1724 27.1113 32.1724C28.163 32.1724 29.3082 32.61 30.0094 33.5951C30.8041 34.6894 30.6408 36.2764 30.6408 37.6718L30.6388 45.8767C30.6388 46.1365 30.4224 46.3448 30.156 46.3448H27.6549C27.4036 46.3284 27.2053 46.127 27.2053 45.8779L27.2048 38.985C27.2048 38.4379 27.2516 37.0698 27.1346 36.55C26.9477 35.6744 26.3868 35.4281 25.6623 35.4281C25.0548 35.4281 24.4234 35.8385 24.1664 36.4954C23.9093 37.152 23.9329 38.2463 23.9329 38.985V45.8767C23.9329 46.1365 23.7165 46.3448 23.4498 46.3448H20.949C20.6977 46.3284 20.4994 46.127 20.4994 45.8779L20.4969 38.985C20.4969 37.535 20.7306 35.4008 18.9544 35.4008C17.1546 35.4008 17.2248 37.4802 17.2248 38.985L17.2239 45.8767C17.2242 46.1365 17.0078 46.3448 16.7408 46.3448" fill="#444444"/>
<path fill-rule="evenodd" clip-rule="evenodd" d="M63.0409 34.8261C61.1943 34.8261 61.0775 37.3707 61.0775 38.9575C61.0775 40.5445 61.0542 43.9373 63.0176 43.9373C64.9577 43.9373 65.0509 41.2011 65.0509 39.5322C65.0509 38.4379 65.0043 37.1244 64.6771 36.0848C64.3962 35.1819 63.8353 34.8261 63.0409 34.8261ZM63.0176 32.1724C66.734 32.1724 68.7437 35.4008 68.7437 39.5049C68.7437 43.4718 66.5238 46.6187 63.0176 46.6187C59.3715 46.6187 57.3848 43.3899 57.3848 39.3681C57.3848 35.3187 59.3947 32.1724 63.0176 32.1724V32.1724Z" fill="#444444"/>
<path fill-rule="evenodd" clip-rule="evenodd" d="M73.563 46.3448H71.0685C70.8177 46.3284 70.6192 46.127 70.6192 45.8779L70.6152 32.871C70.6363 32.6333 70.8439 32.4465 71.0961 32.4465L73.4188 32.446C73.6372 32.4572 73.8175 32.6083 73.8635 32.81V34.7988H73.9107C74.6119 33.0204 75.5932 32.1724 77.3228 32.1724C78.4444 32.1724 79.5433 32.5827 80.2445 33.7046C80.8991 34.7442 80.8991 36.4954 80.8991 37.7537V45.935C80.8707 46.1658 80.6665 46.3448 80.4192 46.3448H77.909C77.6773 46.3296 77.4904 46.1575 77.4631 45.935V38.8756C77.4631 37.4529 77.6267 35.3736 75.8971 35.3736C75.2893 35.3736 74.7283 35.7839 74.4483 36.4132C74.0978 37.2066 74.0507 38 74.0507 38.8756V45.8767C74.0461 46.1365 73.8297 46.3448 73.563 46.3448" fill="#444444"/>
<path fill-rule="evenodd" clip-rule="evenodd" d="M82.4683 45.3132C82.4683 44.6589 83.0204 44.1284 83.7009 44.1284C84.3817 44.1284 84.933 44.6589 84.933 45.3132C84.933 45.9672 84.3817 46.4974 83.7009 46.4974C83.0204 46.4974 82.4683 45.9672 82.4683 45.3132" fill="#444444"/>
<path fill-rule="evenodd" clip-rule="evenodd" d="M108.996 46.3483C108.736 46.3402 108.529 46.1354 108.529 45.8808V32.877C108.547 32.6477 108.738 32.4649 108.977 32.4494L109.896 32.4491C110.149 32.4491 110.357 32.6362 110.377 32.8773V34.7733C111.031 33.271 112.248 32.094 113.788 32.094L113.884 32.0954L113.977 32.094C115.609 32.094 116.804 33.3126 117.248 35.0831C117.94 33.3351 119.243 32.094 120.962 32.094L121.052 32.0954L121.152 32.094C122.367 32.094 123.536 32.8874 124.144 34.0911C124.728 35.2402 124.704 36.7724 124.704 38.0583L124.704 45.8813C124.704 46.1305 124.506 46.3319 124.254 46.3483H123.154C122.918 46.3408 122.724 46.1693 122.692 45.9445V38.0583C122.692 37.1282 122.738 36.1431 122.365 35.2948C121.982 34.4267 121.255 33.8874 120.472 33.8474C119.598 33.8914 118.795 34.5331 118.277 35.4043C117.599 36.5262 117.623 37.5385 117.623 38.8517V45.9491C117.592 46.1647 117.407 46.3331 117.177 46.3483H116.083C115.823 46.3402 115.615 46.1354 115.615 45.8808L115.61 37.5385C115.61 36.7724 115.564 35.8695 115.213 35.1854C114.809 34.3983 114.084 33.8879 113.324 33.8474C112.535 33.892 111.738 34.5017 111.265 35.2129C110.658 36.1158 110.541 37.2376 110.541 38.3868L110.54 45.8813C110.54 46.1305 110.342 46.3319 110.091 46.3483H108.996" fill="#444444"/>
<path fill-rule="evenodd" clip-rule="evenodd" d="M101.712 44.8417C102.881 44.8032 103.803 44.0707 104.349 42.8463C104.839 41.752 104.933 40.4934 104.933 39.2897C104.933 37.9761 104.793 36.6083 104.185 35.4865C103.641 34.5052 102.703 33.8839 101.708 33.8465C100.602 33.8876 99.6156 34.6445 99.1157 35.8147C98.6721 36.827 98.5318 38.1678 98.5318 39.2897C98.5318 40.548 98.6954 41.998 99.2097 43.0925C99.7087 44.1293 100.672 44.8046 101.712 44.8417ZM101.451 46.6221C97.8981 46.6221 96.3091 42.9558 96.3091 39.2897C96.3091 35.4316 98.179 32.094 101.754 32.094L101.847 32.0948L101.944 32.094C105.426 32.094 107.156 35.6506 107.156 39.3167C107.156 43.202 105.239 46.6221 101.64 46.6221L101.548 46.621L101.451 46.6221V46.6221Z" fill="#444444"/>
<path fill-rule="evenodd" clip-rule="evenodd" d="M90.3492 44.7874C91.9439 44.7368 92.7812 43.4437 93.1288 41.7672C93.1967 41.5583 93.3552 41.3974 93.5878 41.3974L94.6426 41.3928C94.8911 41.406 95.1198 41.5986 95.101 41.8333C94.6139 44.6848 92.9127 46.6221 90.488 46.6221L90.3903 46.621L90.2989 46.6221C86.7697 46.6221 85.2502 43.0379 85.2502 39.3989C85.2502 35.7874 86.793 32.094 90.3222 32.094L90.4153 32.0948L90.5113 32.094C92.9604 32.094 94.7082 34.0035 95.0877 36.8566C95.0877 37.0707 94.8911 37.256 94.6611 37.2831L93.5554 37.2698C93.3259 37.2368 93.174 37.0348 93.1393 36.8106C92.8732 35.2178 91.9689 33.9514 90.4625 33.9012C88.0626 33.9787 87.3798 36.967 87.3798 39.2621C87.3798 41.4776 87.9495 44.7072 90.3492 44.7874Z" fill="#444444"/>
<path fill-rule="evenodd" clip-rule="evenodd" d="M42.7258 46.3124C42.5599 46.4626 42.321 46.4727 42.1341 46.3713C41.3026 45.6718 41.1534 45.3486 40.699 44.683C39.3244 46.0994 38.3508 46.5244 36.5709 46.5244C34.4629 46.5244 32.823 45.2083 32.823 42.5761C32.823 40.5195 33.9238 39.1213 35.4933 38.4356C36.8518 37.8322 38.7493 37.7227 40.2014 37.558V37.229C40.2014 36.6259 40.2483 35.9129 39.897 35.3919C39.5922 34.9259 39.0069 34.7339 38.4914 34.7339C37.5365 34.7339 36.6876 35.229 36.4788 36.2552C36.4357 36.4833 36.2709 36.7092 36.044 36.7207L33.6171 36.4549C33.4123 36.4083 33.1845 36.2419 33.2436 35.9256C33.8014 32.9465 36.4601 32.0465 38.843 32.0465C40.0608 32.0465 41.6536 32.3756 42.6139 33.308C43.832 34.4598 43.7147 35.9951 43.7147 37.6678V41.6147C43.7147 42.8017 44.2023 43.3227 44.6599 43.9624C44.8198 44.1928 44.8559 44.4669 44.6517 44.6353C44.1401 45.069 43.2316 45.8678 42.7314 46.3178L42.7258 46.3124ZM40.2014 40.1356C40.2014 41.1227 40.2247 41.9454 39.7328 42.823C39.3346 43.5359 38.7024 43.9744 37.9995 43.9744C37.0392 43.9744 36.4771 43.2339 36.4771 42.1374C36.4771 39.9799 38.39 39.5874 40.2014 39.5874V40.1356V40.1356Z" fill="#444444"/>
<path fill-rule="evenodd" clip-rule="evenodd" d="M9.90247 14.3126C9.7366 14.4629 9.49746 14.473 9.31086 14.3716C8.47898 13.6721 8.33016 13.3489 7.87545 12.6833C6.50139 14.0997 5.52778 14.5247 3.74758 14.5247C1.63933 14.5247 0 13.2086 0 10.5764C0 8.51983 1.10084 7.12156 2.67002 6.43593C4.02875 5.83248 5.92597 5.72299 7.37786 5.55834V5.22932C7.37786 4.62615 7.425 3.91322 7.07368 3.39225C6.76921 2.92615 6.18329 2.7342 5.66837 2.7342C4.71351 2.7342 3.86402 3.22932 3.65584 4.25547C3.61239 4.48363 3.44794 4.70949 3.22073 4.72098L0.794106 4.45518C0.589047 4.40863 0.360983 4.24225 0.420342 3.92587C0.977864 0.946844 3.63681 0.0468445 6.01941 0.0468445C7.23755 0.0468445 8.83031 0.375867 9.79085 1.30834C11.0087 2.46006 10.8917 3.99541 10.8917 5.66811V9.61495C10.8917 10.802 11.3788 11.323 11.8366 11.9626C11.9962 12.1931 12.0323 12.4672 11.8284 12.6356C11.3171 13.0693 10.408 13.8681 9.90843 14.3181L9.90247 14.3126ZM7.37786 8.13562C7.37786 9.12269 7.40144 9.94539 6.90952 10.823C6.51162 11.5359 5.87912 11.9744 5.17646 11.9744C4.21621 11.9744 3.65386 11.2339 3.65386 10.1373C3.65386 7.97988 5.56698 7.58735 7.37786 7.58735V8.13562V8.13562Z" fill="#444444"/>
</svg>
