<svg width="75" height="15" viewBox="0 0 75 15" fill="none" xmlns="http://www.w3.org/2000/svg">
<path fill-rule="evenodd" clip-rule="evenodd" d="M30.1133 11.6019C27.2932 13.7075 23.2044 14.8275 19.6837 14.8275C14.7492 14.8275 10.3059 12.9822 6.9431 9.90995C6.67913 9.66892 6.91464 9.33927 7.23194 9.52616C10.8598 11.6622 15.3461 12.9486 19.9799 12.9486C23.1057 12.9486 26.5418 12.2922 29.7034 10.9355C30.1802 10.7306 30.58 11.2534 30.1133 11.6019Z" fill="#444444"/>
<path fill-rule="evenodd" clip-rule="evenodd" d="M31.287 10.2464C30.9261 9.77903 28.9023 10.0249 27.9933 10.1349C27.718 10.1683 27.6752 9.92506 27.9235 9.74869C29.5378 8.60144 32.1828 8.93282 32.4903 9.31662C32.8002 9.7042 32.4093 12.3875 30.8963 13.668C30.6635 13.8651 30.4423 13.7601 30.5454 13.4997C30.8857 12.6395 31.6479 10.7139 31.287 10.2464Z" fill="#444444"/>
<path fill-rule="evenodd" clip-rule="evenodd" d="M28.0573 1.64441V0.529757C28.058 0.360102 28.1844 0.246999 28.3366 0.247343L33.2747 0.246826C33.4325 0.246826 33.5593 0.363033 33.5597 0.528378L33.5593 1.48441C33.5581 1.64476 33.4247 1.85407 33.1875 2.18614L30.6296 5.88114C31.5792 5.85872 32.5836 6.00234 33.4463 6.49303C33.6408 6.60355 33.6929 6.76752 33.7083 6.92821V8.11752C33.7083 8.28148 33.531 8.47114 33.3448 8.37252C31.8247 7.567 29.8078 7.47872 28.1272 8.38217C27.9554 8.47476 27.7756 8.28786 27.7756 8.1239V6.99321C27.7756 6.81234 27.779 6.50286 27.9593 6.227L30.9229 1.92545L28.3426 1.9251C28.185 1.9251 28.0583 1.81131 28.0573 1.64441Z" fill="#444444"/>
<path fill-rule="evenodd" clip-rule="evenodd" d="M10.0443 8.60678H8.54217C8.3992 8.5973 8.28485 8.48851 8.27344 8.34988L8.27446 0.548677C8.27446 0.392643 8.40414 0.267815 8.56433 0.267815L9.96338 0.26747C10.1098 0.275057 10.2273 0.387126 10.2365 0.529367V1.54799H10.2647C10.6293 0.562988 11.3164 0.103333 12.2419 0.103333C13.1814 0.103333 13.7705 0.562988 14.1912 1.54799C14.5557 0.562988 15.3831 0.103333 16.2666 0.103333C16.8977 0.103333 17.5848 0.365919 18.0055 0.956953C18.4823 1.6135 18.3843 2.56575 18.3843 3.40299L18.3831 8.32592C18.3831 8.48178 18.2533 8.60678 18.0934 8.60678H16.5928C16.442 8.59695 16.323 8.47609 16.323 8.32661L16.3227 4.19092C16.3227 3.86264 16.3508 3.04178 16.2806 2.72988C16.1685 2.20454 15.8319 2.05678 15.3972 2.05678C15.0327 2.05678 14.6539 2.30299 14.4997 2.69713C14.3455 3.09109 14.3596 3.74764 14.3596 4.19092V8.32592C14.3596 8.48178 14.2297 8.60678 14.0697 8.60678H12.5693C12.4185 8.59695 12.2995 8.47609 12.2995 8.32661L12.298 4.19092C12.298 3.32092 12.4382 2.0404 11.3725 2.0404C10.2926 2.0404 10.3347 3.28799 10.3347 4.19092L10.3342 8.32592C10.3344 8.48178 10.2045 8.60678 10.0443 8.60678Z" fill="#444444"/>
<path fill-rule="evenodd" clip-rule="evenodd" d="M37.8246 1.69554C36.7166 1.69554 36.6466 3.22226 36.6466 4.17433C36.6466 5.12657 36.6326 7.16226 37.8106 7.16226C38.9747 7.16226 39.0306 5.52054 39.0306 4.51916C39.0306 3.86261 39.0026 3.0745 38.8063 2.45071C38.6378 1.90899 38.3012 1.69554 37.8246 1.69554ZM37.8106 0.103333C40.0404 0.103333 41.2463 2.0404 41.2463 4.50282C41.2463 6.88299 39.9143 8.77109 37.8106 8.77109C35.6229 8.77109 34.4309 6.83385 34.4309 4.42075C34.4309 1.99109 35.6369 0.103333 37.8106 0.103333Z" fill="#444444"/>
<path fill-rule="evenodd" clip-rule="evenodd" d="M44.1378 8.60678H42.6411C42.4906 8.59695 42.3715 8.47609 42.3715 8.32661L42.3691 0.52247C42.3818 0.379884 42.5063 0.267815 42.6576 0.267815L44.0513 0.26747C44.1823 0.274195 44.2905 0.364884 44.3181 0.485919V1.67919H44.3464C44.7671 0.612126 45.3559 0.103333 46.3937 0.103333C47.0666 0.103333 47.726 0.349539 48.1467 1.02264C48.5395 1.64644 48.5395 2.69713 48.5395 3.45213V8.36092C48.5224 8.49937 48.3999 8.60678 48.2515 8.60678H46.7454C46.6064 8.59764 46.4942 8.49437 46.4779 8.36092V4.12523C46.4779 3.27161 46.576 2.02402 45.5382 2.02402C45.1736 2.02402 44.837 2.27023 44.669 2.64782C44.4587 3.12385 44.4304 3.59988 44.4304 4.12523V8.32592C44.4277 8.48178 44.2978 8.60678 44.1378 8.60678Z" fill="#444444"/>
<path fill-rule="evenodd" clip-rule="evenodd" d="M49.481 7.9879C49.481 7.59531 49.8122 7.27704 50.2205 7.27704C50.629 7.27704 50.9598 7.59531 50.9598 7.9879C50.9598 8.38031 50.629 8.69842 50.2205 8.69842C49.8122 8.69842 49.481 8.38031 49.481 7.9879Z" fill="#444444"/>
<path fill-rule="evenodd" clip-rule="evenodd" d="M65.3978 8.60898C65.2418 8.60415 65.1174 8.48122 65.1174 8.32846V0.526224C65.1282 0.388638 65.2429 0.278983 65.3863 0.269672L65.9378 0.2695C66.0896 0.2695 66.2142 0.381741 66.2265 0.526396V1.66398C66.6186 0.762603 67.3491 0.0563965 68.2727 0.0563965L68.3305 0.0572586L68.3862 0.0563965C69.3657 0.0563965 70.0826 0.787603 70.3488 1.84984C70.7639 0.801052 71.5461 0.0563965 72.5774 0.0563965L72.6311 0.0572586L72.6913 0.0563965C73.4203 0.0563965 74.1215 0.532431 74.4864 1.25467C74.8367 1.94415 74.8227 2.86347 74.8227 3.63502L74.8224 8.32881C74.8227 8.47829 74.7036 8.59915 74.5528 8.60898H73.8928C73.7507 8.6045 73.6343 8.50157 73.6152 8.36674V3.63502C73.6152 3.07691 73.6432 2.48588 73.4189 1.97691C73.1895 1.45605 72.7529 1.13243 72.2833 1.10847C71.7588 1.13484 71.2774 1.51984 70.9662 2.0426C70.5596 2.71571 70.5739 3.32312 70.5739 4.11105V8.3695C70.5552 8.49881 70.4441 8.59984 70.3066 8.60898H69.65C69.4942 8.60415 69.3693 8.48122 69.3693 8.32846L69.3664 3.32312C69.3664 2.86347 69.3385 2.32174 69.128 1.91122C68.8857 1.43898 68.4505 1.13278 67.9944 1.10847C67.5214 1.13519 67.0429 1.50105 66.7593 1.92778C66.3948 2.4695 66.3246 3.1426 66.3246 3.83209L66.3243 8.32881C66.3243 8.47829 66.2052 8.59915 66.0547 8.60898H65.3978Z" fill="#444444"/>
<path fill-rule="evenodd" clip-rule="evenodd" d="M61.0274 7.70497C61.7287 7.68187 62.2818 7.24238 62.6093 6.50773C62.9036 5.85118 62.9599 5.096 62.9599 4.37376C62.9599 3.58566 62.8757 2.76497 62.5112 2.09187C62.1847 1.50307 61.6215 1.13031 61.025 1.1079C60.3611 1.13255 59.7693 1.58669 59.4694 2.28876C59.2032 2.89618 59.119 3.70066 59.119 4.37376C59.119 5.12876 59.2172 5.99876 59.5258 6.65549C59.8252 7.27755 60.4034 7.68273 61.0274 7.70497ZM60.8703 8.77329C58.7388 8.77329 57.7854 6.57346 57.7854 4.37381C57.7854 2.05898 58.9074 0.0563965 61.0526 0.0563965L61.108 0.0569137L61.1661 0.0563965C63.2557 0.0563965 64.2935 2.19036 64.2935 4.39002C64.2935 6.72122 63.1436 8.77329 60.9838 8.77329L60.9286 8.7726L60.8703 8.77329Z" fill="#444444"/>
<path fill-rule="evenodd" clip-rule="evenodd" d="M54.2095 7.67243C55.1663 7.64209 55.6687 6.86622 55.8773 5.86036C55.918 5.73502 56.0131 5.63847 56.1527 5.63847L56.7856 5.63571C56.9347 5.64364 57.0719 5.75915 57.0606 5.90002C56.7684 7.61088 55.7476 8.77329 54.2928 8.77329L54.2342 8.7726L54.1793 8.77329C52.0618 8.77329 51.1501 6.62278 51.1501 4.43933C51.1501 2.27243 52.0758 0.0563965 54.1933 0.0563965L54.2492 0.0569137L54.3068 0.0563965C55.7762 0.0563965 56.8249 1.20209 57.0526 2.91398C57.0526 3.04243 56.9347 3.15364 56.7966 3.16984L56.1332 3.16191C55.9956 3.14209 55.9044 3.02088 55.8836 2.8864C55.7239 1.93071 55.1813 1.17088 54.2775 1.14071C52.8375 1.18726 52.4279 2.98019 52.4279 4.35726C52.4279 5.68657 52.7697 7.62433 54.2095 7.67243Z" fill="#444444"/>
<path fill-rule="evenodd" clip-rule="evenodd" d="M25.6355 8.58738C25.536 8.67755 25.3927 8.68358 25.2805 8.62272C24.7816 8.20307 24.6921 8.0091 24.4195 7.60979C23.5947 8.45962 23.0105 8.71462 21.9426 8.71462C20.6778 8.71462 19.6938 7.92496 19.6938 6.34565C19.6938 5.11169 20.3544 4.27272 21.296 3.86134C22.1111 3.49927 23.2496 3.43358 24.1209 3.33479V3.13738C24.1209 2.77548 24.149 2.34772 23.9382 2.03513C23.7554 1.75548 23.4042 1.64031 23.0949 1.64031C22.522 1.64031 22.0126 1.93738 21.8874 2.55307C21.8615 2.68996 21.7626 2.82548 21.6265 2.83238L20.1703 2.67289C20.0474 2.64496 19.9108 2.54513 19.9462 2.35531C20.2809 0.567893 21.8761 0.0278931 23.3058 0.0278931C24.0366 0.0278931 24.9922 0.225307 25.5684 0.78479C26.2992 1.47582 26.2289 2.39703 26.2289 3.40065V5.76876C26.2289 6.481 26.5215 6.79358 26.796 7.17738C26.8919 7.31565 26.9136 7.48013 26.791 7.58117C26.4841 7.84134 25.939 8.32065 25.6389 8.59065L25.6355 8.58738ZM24.1209 4.88135C24.1209 5.4736 24.1349 5.96722 23.8397 6.49377C23.6008 6.92153 23.2215 7.18463 22.7997 7.18463C22.2236 7.18463 21.8863 6.74032 21.8863 6.08239C21.8863 4.78791 23.0341 4.55239 24.1209 4.55239V4.88135Z" fill="#444444"/>
<path fill-rule="evenodd" clip-rule="evenodd" d="M5.94148 8.58768C5.84196 8.67785 5.69848 8.68389 5.58652 8.62303C5.08739 8.20337 4.9981 8.00941 4.72527 7.6101C3.90083 8.45992 3.31667 8.71492 2.24855 8.71492C0.983601 8.71492 0 7.92527 0 6.34596C0 5.11199 0.660505 4.27303 1.60201 3.86165C2.41725 3.49958 3.55558 3.43389 4.42671 3.33509V3.13768C4.42671 2.77578 4.455 2.34803 4.24421 2.03544C4.06153 1.75578 3.70997 1.64061 3.40102 1.64061C2.82811 1.64061 2.31841 1.93768 2.1935 2.55337C2.16743 2.69027 2.06876 2.82578 1.93244 2.83268L0.476463 2.6732C0.353428 2.64527 0.21659 2.54544 0.252205 2.35561C0.586718 0.568198 2.18209 0.0281982 3.61165 0.0281982C4.34253 0.0281982 5.29819 0.225612 5.87451 0.785095C6.60522 1.47613 6.53501 2.39734 6.53501 3.40096V5.76906C6.53501 6.4813 6.82726 6.79389 7.10196 7.17768C7.19773 7.31596 7.21938 7.48044 7.09702 7.58147C6.79029 7.84165 6.24481 8.32096 5.94506 8.59096L5.94148 8.58768ZM4.42671 4.88136C4.42671 5.4736 4.44086 5.96722 4.14571 6.49377C3.90697 6.92153 3.52747 7.18463 3.10587 7.18463C2.52972 7.18463 2.19231 6.74032 2.19231 6.08239C2.19231 4.78791 3.34019 4.55239 4.42671 4.55239V4.88136Z" fill="#444444"/>
</svg>
