<svg width="110" height="22" viewBox="0 0 110 22" fill="none" xmlns="http://www.w3.org/2000/svg">
<path fill-rule="evenodd" clip-rule="evenodd" d="M10.2906 0.00261831V3.37802H8.44666C8.44666 3.37802 6.78106 3.13687 6.78106 4.76444V7.41662H10.2906L9.87428 11.0802H6.78106V21.3403H2.73637V11.0334H0V7.41662H2.85525V4.34239C2.85525 4.34239 2.4984 2.65479 3.98546 1.26837C5.47253 -0.117848 7.43533 0.00261831 7.43533 0.00261831H10.2906Z" fill="#444444"/>
<path fill-rule="evenodd" clip-rule="evenodd" d="M19.8255 15.825C19.8255 17.2231 18.6527 18.5376 17.2061 18.5376C15.7593 18.5376 14.5865 17.2231 14.5865 15.825V13.173C14.5865 11.7748 15.7593 10.4606 17.2061 10.4606C18.6527 10.4606 19.8255 11.7748 19.8255 13.173V15.825ZM20.0432 7.47692V9.31616C19.0112 7.93999 17.568 7.08498 15.9711 7.08498C12.8338 7.08498 10.2905 9.88795 10.2905 14.4537C10.2905 18.9895 12.8338 21.8224 15.9711 21.8224C17.5832 21.8224 19.0384 20.9514 20.0725 19.5521L20.0457 21.3403H23.9418V7.47692H20.0432Z" fill="#444444"/>
<path fill-rule="evenodd" clip-rule="evenodd" d="M55.9856 13.0826C55.9856 11.6844 57.1584 10.37 58.605 10.37C60.0518 10.37 61.2246 11.6844 61.2246 13.0826V15.7346C61.2246 17.1328 60.0518 18.447 58.605 18.447C57.1584 18.447 55.9856 17.1328 55.9856 15.7346V13.0826ZM55.7678 21.4307V19.5914C56.7998 20.9676 58.243 21.8226 59.8399 21.8226C62.9772 21.8226 65.5205 19.0196 65.5205 14.4537C65.5205 9.91805 62.9772 7.08496 59.8399 7.08496C58.2278 7.08496 56.7726 7.9562 55.7385 9.35523L55.7653 0.1996L51.7136 0.6616V21.3674L55.7678 21.4307Z" fill="#444444"/>
<path fill-rule="evenodd" clip-rule="evenodd" d="M32.7453 18.4602C32.7453 18.4602 29.6223 18.6411 29.6223 14.5423V14.3182C29.6223 10.2194 32.7453 10.4003 32.7453 10.4003C34.8569 10.37 35.6005 11.1235 35.6005 11.1235L36.5819 8.13987C34.8866 6.87412 29.7711 6.66309 27.481 8.80286C25.4994 10.6545 25.4999 13.6548 25.5359 14.4302C25.4999 15.2055 25.4994 18.206 27.481 20.0575C29.7711 22.1972 34.8866 21.9864 36.5819 20.7207L35.6005 17.737C35.6005 17.737 34.8569 18.4903 32.7453 18.4602" fill="#444444"/>
<path fill-rule="evenodd" clip-rule="evenodd" d="M41.2512 13.1126C41.2512 13.1126 41.043 10.0386 43.7793 10.0386C46.5155 10.0386 46.3072 13.1126 46.3072 13.1126H41.2512ZM50.025 15.9154C50.025 15.9154 51.6607 7.23565 43.8388 7.18866C36.0167 7.14145 37.1469 15.0414 37.1469 15.0414C37.3254 19.8333 39.4965 21.2197 43.2143 21.6717C46.9318 22.1239 49.7573 20.6772 49.7573 20.6772L48.8948 17.8745C48.8948 17.8745 45.891 18.8087 43.5117 18.5977C41.1324 18.3869 41.3107 15.9154 41.3107 15.9154H50.025Z" fill="#444444"/>
<path fill-rule="evenodd" clip-rule="evenodd" d="M76.2333 15.7516C76.2333 17.1498 75.03 18.4643 73.5454 18.4643C72.0611 18.4643 70.8576 17.1498 70.8576 15.7516V13.0997C70.8576 11.7015 72.0611 10.3873 73.5454 10.3873C75.03 10.3873 76.2333 11.7015 76.2333 13.0997V15.7516ZM73.5802 7.27415C68.4883 7.27415 66.7747 10.3873 66.7747 14.5482C66.7747 18.9628 68.9828 21.8226 73.5802 21.8226C77.3388 21.8226 80.3859 19.2635 80.3859 14.5482C80.3859 10.531 78.4414 7.27415 73.5802 7.27415V7.27415Z" fill="#444444"/>
<path fill-rule="evenodd" clip-rule="evenodd" d="M91.2616 15.7516C91.2616 17.1498 90.0583 18.4643 88.5738 18.4643C87.0894 18.4643 85.8859 17.1498 85.8859 15.7516V13.0997C85.8859 11.7015 87.0894 10.3873 88.5738 10.3873C90.0583 10.3873 91.2616 11.7015 91.2616 13.0997V15.7516ZM88.6085 7.27415C83.5166 7.27415 81.803 10.3873 81.803 14.5482C81.803 18.9628 84.0111 21.8226 88.6085 21.8226C92.3671 21.8226 95.4142 19.2635 95.4142 14.5482C95.4142 10.531 93.4697 7.27415 88.6085 7.27415V7.27415Z" fill="#444444"/>
<path fill-rule="evenodd" clip-rule="evenodd" d="M109.685 21.4008L105.235 14.421L109.487 7.44105H105.136L100.984 13.6893V0.127434L96.8972 0.561453V21.4008H100.984V14.3001L105.466 21.4008H109.685Z" fill="#444444"/>
</svg>
