<svg width="75" height="15" viewBox="0 0 75 15" fill="none" xmlns="http://www.w3.org/2000/svg">
<path fill-rule="evenodd" clip-rule="evenodd" d="M7.0163 0.00180082V2.30321H5.75909C5.75909 2.30321 4.62345 2.13879 4.62345 3.2485V5.0568H7.0163L6.73247 7.55467H4.62345V14.5502H1.86571V7.52277H0V5.0568H1.94676V2.96073C1.94676 2.96073 1.70345 1.8101 2.71736 0.864811C3.73127 -0.0803351 5.06954 0.00180082 5.06954 0.00180082H7.0163Z" fill="#444444"/>
<path fill-rule="evenodd" clip-rule="evenodd" d="M13.5175 10.7897C13.5175 11.743 12.7179 12.6392 11.7315 12.6392C10.7451 12.6392 9.94545 11.743 9.94545 10.7897V8.98157C9.94545 8.02827 10.7451 7.1322 11.7315 7.1322C12.7179 7.1322 13.5175 8.02827 13.5175 8.98157V10.7897ZM13.6659 5.09792V6.35195C12.9623 5.41365 11.9783 4.83069 10.8895 4.83069C8.75042 4.83069 7.01636 6.7418 7.01636 9.85481C7.01636 12.9474 8.75042 14.8789 10.8895 14.8789C11.9886 14.8789 12.9808 14.2851 13.6859 13.331L13.6676 14.5503H16.3241V5.09792H13.6659Z" fill="#444444"/>
<path fill-rule="evenodd" clip-rule="evenodd" d="M38.172 8.91992C38.172 7.96662 38.9716 7.07041 39.9579 7.07041C40.9444 7.07041 41.744 7.96662 41.744 8.91992V10.7281C41.744 11.6814 40.9444 12.5774 39.9579 12.5774C38.9716 12.5774 38.172 11.6814 38.172 10.7281V8.91992ZM38.0235 14.6118V13.3577C38.7271 14.296 39.7111 14.879 40.7999 14.879C42.939 14.879 44.673 12.9679 44.673 9.85474C44.673 6.76226 42.939 4.83061 40.7999 4.83061C39.7008 4.83061 38.7086 5.42464 38.0035 6.37852L38.0218 0.136047L35.2593 0.451047V14.5687L38.0235 14.6118Z" fill="#444444"/>
<path fill-rule="evenodd" clip-rule="evenodd" d="M22.3263 12.5865C22.3263 12.5865 20.197 12.7098 20.197 9.91517V9.76241C20.197 6.96775 22.3263 7.0911 22.3263 7.0911C23.766 7.07042 24.273 7.5842 24.273 7.5842L24.9422 5.54988C23.7863 4.68687 20.2984 4.54299 18.737 6.00192C17.3859 7.2644 17.3862 9.31008 17.4108 9.83872C17.3862 10.3674 17.3859 12.4132 18.737 13.6755C20.2984 15.1344 23.7863 14.9907 24.9422 14.1277L24.273 12.0934C24.273 12.0934 23.766 12.607 22.3263 12.5865Z" fill="#444444"/>
<path fill-rule="evenodd" clip-rule="evenodd" d="M28.126 8.94042C28.126 8.94042 27.984 6.8445 29.8497 6.8445C31.7152 6.8445 31.5733 8.94042 31.5733 8.94042H28.126ZM34.1081 10.8514C34.1081 10.8514 35.2233 4.93337 29.8902 4.90133C24.557 4.86914 25.3276 10.2555 25.3276 10.2555C25.4493 13.5227 26.9295 14.468 29.4644 14.7761C31.9991 15.0844 33.9256 14.0981 33.9256 14.0981L33.3375 12.1871C33.3375 12.1871 31.2894 12.8241 29.6672 12.6802C28.0449 12.5365 28.1665 10.8514 28.1665 10.8514H34.1081Z" fill="#444444"/>
<path fill-rule="evenodd" clip-rule="evenodd" d="M51.9774 10.7398C51.9774 11.6931 51.1569 12.5893 50.1448 12.5893C49.1327 12.5893 48.3121 11.6931 48.3121 10.7398V8.93163C48.3121 7.97833 49.1327 7.08226 50.1448 7.08226C51.1569 7.08226 51.9774 7.97833 51.9774 8.93163V10.7398ZM50.1684 4.95966C46.6967 4.95966 45.5283 7.08223 45.5283 9.91927C45.5283 12.9292 47.0339 14.879 50.1684 14.879C52.7312 14.879 54.8087 13.1342 54.8087 9.91927C54.8087 7.18024 53.4829 4.95966 50.1684 4.95966Z" fill="#444444"/>
<path fill-rule="evenodd" clip-rule="evenodd" d="M62.224 10.7398C62.224 11.6931 61.4035 12.5893 60.3913 12.5893C59.3793 12.5893 58.5587 11.6931 58.5587 10.7398V8.93163C58.5587 7.97833 59.3793 7.08226 60.3913 7.08226C61.4035 7.08226 62.224 7.97833 62.224 8.93163V10.7398ZM60.415 4.95966C56.9433 4.95966 55.7749 7.08223 55.7749 9.91927C55.7749 12.9292 57.2805 14.879 60.415 14.879C62.9777 14.879 65.0553 13.1342 65.0553 9.91927C65.0553 7.18024 63.7295 4.95966 60.415 4.95966Z" fill="#444444"/>
<path fill-rule="evenodd" clip-rule="evenodd" d="M74.785 14.5914L71.7515 9.83249L74.6502 5.07341H71.6841L68.8527 9.33355V0.086853L66.0664 0.382775V14.5914H68.8527V9.75006L71.9087 14.5914H74.785Z" fill="#444444"/>
</svg>
