<svg width="62" height="20" viewBox="0 0 62 20" fill="none" xmlns="http://www.w3.org/2000/svg">
<path fill-rule="evenodd" clip-rule="evenodd" d="M15.2908 8.27728C15.292 8.2425 15.2926 8.14612 15.2926 8.27728H15.2908ZM15.2894 8.27733C15.29 8.29428 15.2904 8.28979 15.2909 8.27733H15.2894ZM7.87274 15.5356C7.85534 15.5361 7.85991 15.5366 7.87274 15.537V15.5356ZM11.7432 3.7151C11.2309 3.24191 10.6249 2.86089 9.9534 2.59959C9.31051 2.3493 8.60865 2.21176 7.87274 2.21176C6.31187 2.21176 4.90741 2.83002 3.89421 3.83017C2.87702 4.83437 2.25005 6.22597 2.25005 7.76669C2.25005 9.30799 2.87717 10.7012 3.89494 11.7065C4.9083 12.7076 6.31246 13.3268 7.87274 13.3268C8.16787 13.3268 7.71308 13.3332 7.95912 13.3306C9.49213 13.3145 10.7725 12.8522 11.6543 12.0038C12.3426 11.3416 12.8055 10.427 12.975 9.28683H7.93465V7.07495H14.1671H15.2755L15.2876 8.17234C15.2882 8.23031 15.2888 8.2622 15.2894 8.27727H15.2882C15.2882 10.5254 14.5309 12.3223 13.2276 13.5764C11.925 14.8294 10.1054 15.5116 7.97681 15.5339C7.91947 15.5345 7.88792 15.5351 7.87274 15.5355V15.537C7.90915 15.5381 8.01205 15.5387 7.87274 15.5387C5.69433 15.5387 3.72821 14.6686 2.30415 13.2618C0.878614 11.8535 0 9.90988 0 7.76669C0 5.6235 0.878467 3.68162 2.30356 2.27495C3.72777 0.869008 5.69419 -0.00012207 7.87274 -0.00012207C8.89803 -0.00012207 9.87881 0.192632 10.7795 0.543066C11.7111 0.905675 12.5583 1.44031 13.2812 2.10799L11.7432 3.7151Z" fill="#444444"/>
<path fill-rule="evenodd" clip-rule="evenodd" d="M23.2849 8.42055C22.7569 7.88475 22.0263 7.5533 21.2184 7.5533C20.4104 7.5533 19.6798 7.88475 19.1518 8.42055C18.623 8.95722 18.2959 9.70243 18.2959 10.5291C18.2959 11.3558 18.623 12.1011 19.1518 12.6377C19.6798 13.1734 20.4104 13.5049 21.2184 13.5049C22.0263 13.5049 22.7569 13.1734 23.2849 12.6377C23.8137 12.1011 24.1409 11.3558 24.1409 10.5291C24.1409 9.70243 23.8137 8.95722 23.2849 8.42055ZM21.2184 5.56415C22.6279 5.56415 23.9049 6.12154 24.8299 7.02255C25.7544 7.92284 26.3261 9.16284 26.3261 10.5291C26.3261 11.8953 25.7544 13.1353 24.8299 14.0356C23.9049 14.9368 22.6279 15.494 21.2184 15.494C19.809 15.494 18.5319 14.9368 17.6068 14.0356C16.6825 13.1353 16.1108 11.8953 16.1108 10.5291C16.1108 9.16284 16.6825 7.92284 17.6068 7.02255C18.5319 6.12154 19.809 5.56415 21.2184 5.56415Z" fill="#444444"/>
<path fill-rule="evenodd" clip-rule="evenodd" d="M34.27 8.42055C33.7419 7.88475 33.0113 7.5533 32.2034 7.5533C31.3954 7.5533 30.6648 7.88475 30.1368 8.42055C29.6081 8.95722 29.281 9.70243 29.281 10.5291C29.281 11.3558 29.6081 12.1011 30.1368 12.6377C30.6648 13.1734 31.3954 13.5049 32.2034 13.5049C33.0113 13.5049 33.7419 13.1734 34.27 12.6377C34.7987 12.1011 35.1259 11.3558 35.1259 10.5291C35.1259 9.70243 34.7987 8.95722 34.27 8.42055ZM32.2035 5.56415C33.6129 5.56415 34.8899 6.12154 35.8151 7.02255C36.7394 7.92284 37.3111 9.16284 37.3111 10.5291C37.3111 11.8953 36.7394 13.1353 35.8151 14.0356C34.8899 14.9368 33.6129 15.494 32.2035 15.494C30.794 15.494 29.5171 14.9368 28.5919 14.0356C27.6675 13.1353 27.0957 11.8953 27.0957 10.5291C27.0957 9.16284 27.6675 7.92284 28.5919 7.02255C29.5171 6.12154 30.794 5.56415 32.2035 5.56415Z" fill="#444444"/>
<path fill-rule="evenodd" clip-rule="evenodd" d="M45.0698 8.42055C44.5668 7.88475 43.8709 7.5533 43.1014 7.5533C42.3317 7.5533 41.6359 7.88475 41.1329 8.42055C40.6292 8.95722 40.3177 9.70243 40.3177 10.5291C40.3177 12.1997 41.4632 13.5595 43.1014 13.5595C43.8709 13.5595 44.5668 13.1734 45.0698 12.6377C45.5736 12.1011 45.8851 11.3558 45.8851 10.5291C45.8851 9.70243 45.5736 8.95722 45.0698 8.42055ZM42.7151 5.56415C44.0902 5.56415 44.9242 5.99386 45.6737 6.70835V5.84415H47.762V15.3037C47.762 16.623 47.1315 18.0539 46.2776 18.8002C45.4552 19.5192 44.3503 19.973 43.2564 19.973C42.2575 19.973 41.2546 19.7837 40.3781 19.2533C39.5983 18.7814 38.933 18.0765 38.4765 17.0836L40.3917 16.235C40.9339 17.4144 41.743 18.0221 43.2564 18.0221C44.3286 18.0221 45.6737 17.0447 45.6737 15.4343V14.3473C44.9127 15.0634 44.0499 15.494 42.9289 15.494C41.6537 15.494 40.2846 14.9368 39.4476 14.0356C38.6113 13.1353 38.094 11.8953 38.094 10.5291C38.094 7.76951 40.4123 5.56415 42.7151 5.56415Z" fill="#444444"/>
<path fill-rule="evenodd" clip-rule="evenodd" d="M49.1121 15.2095H51.2684V0.639099H49.1121V15.2095Z" fill="#444444"/>
<path fill-rule="evenodd" clip-rule="evenodd" d="M54.7736 12.0364C55.6225 14.0246 58.6135 14.0464 59.7471 12.1892L61.4548 13.3144C60.409 14.8211 58.8856 15.5266 57.2262 15.5356C55.7487 15.5372 54.5596 14.9928 53.671 14.1109C51.4996 11.956 51.9643 8.64949 53.4688 7.08196C54.6964 5.80326 56.5898 5.15312 58.543 5.85051C59.8115 6.30341 60.8412 7.40051 61.5938 9.30732C59.319 10.2138 57.0517 11.1346 54.7736 12.0364ZM54.4305 10.3559L59.0229 8.53765C58.2122 7.51302 57.0346 7.01693 55.4826 8.05794C54.8857 8.5536 54.363 9.39968 54.4305 10.3559Z" fill="#444444"/>
</svg>
