<svg width="93" height="30" viewBox="0 0 93 30" fill="none" xmlns="http://www.w3.org/2000/svg">
<path fill-rule="evenodd" clip-rule="evenodd" d="M22.9362 12.416C22.938 12.3638 22.9389 12.2193 22.9389 12.416H22.9362ZM22.934 12.416C22.9349 12.4414 22.9356 12.4347 22.9363 12.416H22.934ZM11.8091 23.3034C11.783 23.3043 11.7898 23.3049 11.8091 23.3056V23.3034ZM17.6148 5.5727C16.8464 4.86292 15.9373 4.2914 14.9301 3.89944C13.9658 3.52401 12.913 3.3177 11.8091 3.3177C9.4678 3.3177 7.36112 4.2451 5.84131 5.74531C4.31553 7.25162 3.37507 9.33901 3.37507 11.6501C3.37507 13.9621 4.31575 16.0518 5.84242 17.5599C7.36245 19.0614 9.46869 19.9903 11.8091 19.9903C12.2518 19.9903 11.5696 19.9999 11.9387 19.996C14.2382 19.9718 16.1587 19.2784 17.4815 18.0057C18.5139 17.0125 19.2083 15.6405 19.4626 13.9303H11.902V10.6125H21.2506H22.9133L22.9314 12.2586C22.9323 12.3455 22.9332 12.3934 22.934 12.416H22.9323C22.9323 15.7881 21.7963 18.4836 19.8413 20.3647C17.8875 22.2442 15.1581 23.2675 11.9652 23.301C11.8792 23.3018 11.8319 23.3027 11.8091 23.3034V23.3055C11.8637 23.3073 12.0181 23.3081 11.8091 23.3081C8.5415 23.3081 5.59232 22.0029 3.45623 19.8927C1.31792 17.7803 0 14.8649 0 11.6501C0 8.43531 1.3177 5.52249 3.45534 3.41249C5.59166 1.30357 8.54128 -0.00012207 11.8091 -0.00012207C13.347 -0.00012207 14.8182 0.289008 16.1693 0.814661C17.5666 1.35857 18.8374 2.16053 19.9218 3.16205L17.6148 5.5727Z" fill="#444444"/>
<path fill-rule="evenodd" clip-rule="evenodd" d="M34.9272 12.6309C34.1351 11.8272 33.0392 11.33 31.8274 11.33C30.6154 11.33 29.5195 11.8272 28.7274 12.6309C27.9342 13.4359 27.4435 14.5537 27.4435 15.7937C27.4435 17.0337 27.9342 18.1517 28.7274 18.9565C29.5195 19.7602 30.6154 20.2574 31.8274 20.2574C33.0392 20.2574 34.1351 19.7602 34.9272 18.9565C35.7204 18.1517 36.211 17.0337 36.211 15.7937C36.211 14.5537 35.7204 13.4359 34.9272 12.6309M31.8274 8.34631C33.9416 8.34631 35.857 9.18239 37.2446 10.5339C38.6313 11.8843 39.4888 13.7443 39.4888 15.7937C39.4888 17.843 38.6313 19.703 37.2446 21.0535C35.857 22.4052 33.9416 23.2411 31.8274 23.2411C29.7132 23.2411 27.7976 22.4052 26.41 21.0535C25.0235 19.703 24.166 17.843 24.166 15.7937C24.166 13.7443 25.0235 11.8843 26.41 10.5339C27.7976 9.18239 29.7132 8.34631 31.8274 8.34631" fill="#444444"/>
<path fill-rule="evenodd" clip-rule="evenodd" d="M51.4049 12.6309C50.6129 11.8272 49.517 11.33 48.3052 11.33C47.0932 11.33 45.9973 11.8272 45.2052 12.6309C44.4122 13.4359 43.9216 14.5537 43.9216 15.7937C43.9216 17.0337 44.4122 18.1517 45.2052 18.9565C45.9973 19.7602 47.0932 20.2574 48.3052 20.2574C49.517 20.2574 50.6129 19.7602 51.4049 18.9565C52.1981 18.1517 52.6888 17.0337 52.6888 15.7937C52.6888 14.5537 52.1981 13.4359 51.4049 12.6309M48.3052 8.34631C50.4194 8.34631 52.3348 9.18239 53.7226 10.5339C55.1091 11.8843 55.9666 13.7443 55.9666 15.7937C55.9666 17.843 55.1091 19.703 53.7226 21.0535C52.3348 22.4052 50.4194 23.2411 48.3052 23.2411C46.191 23.2411 44.2756 22.4052 42.8878 21.0535C41.5013 19.703 40.6436 17.843 40.6436 15.7937C40.6436 13.7443 41.5013 11.8843 42.8878 10.5339C44.2756 9.18239 46.191 8.34631 48.3052 8.34631" fill="#444444"/>
<path fill-rule="evenodd" clip-rule="evenodd" d="M67.6046 12.6309C66.8501 11.8272 65.8062 11.33 64.6519 11.33C63.4974 11.33 62.4537 11.8272 61.6992 12.6309C60.9436 13.4359 60.4763 14.5537 60.4763 15.7937C60.4763 18.2996 62.1947 20.3394 64.6519 20.3394C65.8062 20.3394 66.8501 19.7602 67.6046 18.9565C68.3602 18.1517 68.8275 17.0337 68.8275 15.7937C68.8275 14.5537 68.3602 13.4359 67.6046 12.6309M64.0726 8.34631C66.1352 8.34631 67.3862 8.99087 68.5104 10.0626V8.76631H71.6429V22.9557C71.6429 24.9346 70.6971 27.0809 69.4163 28.2004C68.1827 29.2789 66.5253 29.9596 64.8845 29.9596C63.3862 29.9596 61.8818 29.6757 60.567 28.88C59.3973 28.1722 58.3993 27.1148 57.7147 25.6254L60.5874 24.3526C61.4007 26.1217 62.6144 27.0333 64.8845 27.0333C66.4928 27.0333 68.5104 25.5672 68.5104 23.1515V21.5211C67.3689 22.5952 66.0747 23.2411 64.3932 23.2411C62.4804 23.2411 60.4268 22.4052 59.1713 21.0535C57.9168 19.703 57.1409 17.843 57.1409 15.7937C57.1409 11.6543 60.6183 8.34631 64.0726 8.34631" fill="#444444"/>
<path fill-rule="evenodd" clip-rule="evenodd" d="M73.6682 22.8143H76.9026V0.958694H73.6682V22.8143Z" fill="#444444"/>
<path fill-rule="evenodd" clip-rule="evenodd" d="M82.1603 18.0547C83.4336 21.0369 87.9201 21.0697 89.6205 18.2838L92.1821 19.9717C90.6134 22.2317 88.3283 23.2899 85.8393 23.3034C83.6229 23.3058 81.8393 22.4893 80.5063 21.1664C77.2493 17.9341 77.9463 12.9743 80.2031 10.623C82.0445 8.70492 84.8846 7.72971 87.8144 8.77579C89.7172 9.45514 91.2617 11.1008 92.3906 13.961C88.9784 15.3208 85.5774 16.7019 82.1603 18.0547M81.6456 15.5338L88.5342 12.8065C87.3182 11.2695 85.5518 10.5254 83.2238 12.0869C82.3284 12.8304 81.5443 14.0995 81.6456 15.5338" fill="#444444"/>
</svg>
