<svg width="76" height="20" viewBox="0 0 76 20" fill="none" xmlns="http://www.w3.org/2000/svg">
<path fill-rule="evenodd" clip-rule="evenodd" d="M0 2.86584V16.5117H8.38439V13.7535H2.94053V2.86584H0Z" fill="#444444"/>
<path fill-rule="evenodd" clip-rule="evenodd" d="M11.0962 2.66364C12.0012 2.66364 12.7357 3.41035 12.7357 4.32957C12.7357 5.25041 12.0012 5.99497 11.0962 5.99497C10.1923 5.99497 9.45776 5.25041 9.45776 4.32957C9.45776 3.41035 10.1923 2.66364 11.0962 2.66364ZM9.68302 16.508H12.5093V7.26042H9.68302V16.508Z" fill="#444444"/>
<path fill-rule="evenodd" clip-rule="evenodd" d="M24.3232 2.86493H27.1484V11.0206L30.3489 7.25638H33.8125L30.106 11.538L33.7351 16.5118H30.1837L27.1851 11.9404H27.1484V16.5118H24.3232V2.86493Z" fill="#444444"/>
<path fill-rule="evenodd" clip-rule="evenodd" d="M14.0725 7.2618H16.7854V8.52592H16.8232C17.1997 7.79805 18.1231 7.03223 19.4982 7.03223C22.3624 7.03223 22.8897 8.94738 22.8897 11.4367V16.508H20.0636V12.0117C20.0636 10.9388 20.0441 9.56033 18.5932 9.56033C17.1241 9.56033 16.8987 10.7289 16.8987 11.935V16.508H14.0725V7.2618Z" fill="#444444"/>
<path fill-rule="evenodd" clip-rule="evenodd" d="M42.1531 14.9071C41.2487 16.0757 39.7611 16.7467 38.2907 16.7467C35.4653 16.7467 33.2043 14.8304 33.2043 11.8618C33.2043 8.89349 35.4653 6.97833 38.2907 6.97833C40.9305 6.97833 42.5868 8.89349 42.5868 11.8618V12.762H36.0305C36.2549 13.8539 37.0663 14.5625 38.1592 14.5625C39.0828 14.5625 39.704 14.0835 40.1752 13.4323L42.1531 14.9071ZM39.7611 10.8092C39.7795 9.85149 39.0449 9.04692 38.0264 9.04692C36.7838 9.04692 36.105 9.90882 36.0305 10.8092H39.7611Z" fill="#444444"/>
<path fill-rule="evenodd" clip-rule="evenodd" d="M53.3353 16.5067H50.7348V15.2804H50.698C50.2633 15.9506 49.1716 16.7364 47.89 16.7364C45.1762 16.7364 43.3867 14.7452 43.3867 11.9293C43.3867 9.34332 44.9692 6.96835 47.569 6.96835C48.7382 6.96835 49.8306 7.29373 50.4713 8.19399H50.5081V2.86487H53.3353V16.5067ZM48.4727 9.49673C47.0607 9.49673 46.213 10.4551 46.213 11.8522C46.213 13.2516 47.0607 14.2079 48.4727 14.2079C49.8866 14.2079 50.7348 13.2516 50.7348 11.8522C50.7348 10.4551 49.8866 9.49673 48.4727 9.49673Z" fill="#444444"/>
<path fill-rule="evenodd" clip-rule="evenodd" d="M57.5685 0H73.8121C74.5896 0 75.223 0.625467 75.223 1.39627V17.9796C75.223 18.7512 74.5896 19.3775 73.8121 19.3775H57.5685C56.7923 19.3775 56.1616 18.7512 56.1616 17.9796V1.39627C56.1616 0.625467 56.7923 0 57.5685 0ZM62.0403 4.33376C62.0403 3.41454 61.3058 2.66782 60.402 2.66782C59.4958 2.66782 58.7624 3.41454 58.7624 4.33376C58.7624 5.2538 59.4958 6.00051 60.402 6.00051C61.3058 6.00051 62.0403 5.2538 62.0403 4.33376ZM58.9878 16.5122H61.815V7.26461H58.9878V16.5122ZM66.2999 7.26462H63.5883V16.5122H66.413V11.9376C66.413 10.7315 66.6388 9.56329 68.1098 9.56329C69.5595 9.56329 69.579 10.9427 69.579 12.0151V16.5122H72.4041V11.4398C72.4041 8.9502 71.8755 7.03478 69.0127 7.03478C67.6374 7.03478 66.7152 7.80114 66.3377 8.5282H66.2999V7.26462Z" fill="#444444"/>
</svg>
