<svg width="113" height="30" viewBox="0 0 113 30" fill="none" xmlns="http://www.w3.org/2000/svg">
<path fill-rule="evenodd" clip-rule="evenodd" d="M0 4.50056V24.9694H12.5766V20.8321H4.4108V4.50056H0Z" fill="#444444"/>
<path fill-rule="evenodd" clip-rule="evenodd" d="M16.6444 4.19724C18.0019 4.19724 19.1037 5.31731 19.1037 6.69615C19.1037 8.07741 18.0019 9.19425 16.6444 9.19425C15.2885 9.19425 14.1868 8.07741 14.1868 6.69615C14.1868 5.31731 15.2885 4.19724 16.6444 4.19724V4.19724ZM14.5247 24.9638H18.7641V11.0924H14.5247V24.9638Z" fill="#444444"/>
<path fill-rule="evenodd" clip-rule="evenodd" d="M36.4846 4.49915H40.7223V16.7327L45.523 11.0863H50.7185L45.1587 17.5088L50.6024 24.9694H45.2752L40.7775 18.1123H40.7223V24.9694H36.4846V4.49915Z" fill="#444444"/>
<path fill-rule="evenodd" clip-rule="evenodd" d="M21.1086 11.0944H25.1779V12.9906H25.2347C25.7994 11.8988 27.1845 10.7501 29.2472 10.7501C33.5435 10.7501 34.3345 13.6228 34.3345 17.3569V24.9638H30.0952V18.2194C30.0952 16.61 30.066 14.5423 27.8897 14.5423C25.686 14.5423 25.3479 16.2951 25.3479 18.1043V24.9638H21.1086V11.0944Z" fill="#444444"/>
<path fill-rule="evenodd" clip-rule="evenodd" d="M63.2298 22.5625C61.8731 24.3153 59.6418 25.3218 57.4361 25.3218C53.1981 25.3218 49.8066 22.4474 49.8066 17.9944C49.8066 13.542 53.1981 10.6693 57.4361 10.6693C61.3958 10.6693 63.8803 13.542 63.8803 17.9944V19.3448H54.0459C54.3824 20.9826 55.5995 22.0455 57.239 22.0455C58.6243 22.0455 59.5561 21.327 60.2629 20.3502L63.2298 22.5625ZM59.6418 16.4155C59.6694 14.979 58.5674 13.7721 57.0398 13.7721C55.1758 13.7721 54.1576 15.065 54.0458 16.4155H59.6418Z" fill="#444444"/>
<path fill-rule="evenodd" clip-rule="evenodd" d="M80.0029 24.9618H76.1022V23.1224H76.047C75.395 24.1276 73.7573 25.3064 71.835 25.3064C67.7643 25.3064 65.0801 22.3196 65.0801 18.0957C65.0801 14.2167 67.4537 10.6543 71.3535 10.6543C73.1073 10.6543 74.7459 11.1423 75.7069 12.4927H75.7621V4.49905H80.0029V24.9618ZM72.709 14.4468C70.5911 14.4468 69.3195 15.8844 69.3195 17.98C69.3195 20.0791 70.5911 21.5136 72.709 21.5136C74.8299 21.5136 76.1022 20.0791 76.1022 17.98C76.1022 15.8844 74.8299 14.4468 72.709 14.4468V14.4468Z" fill="#444444"/>
<path fill-rule="evenodd" clip-rule="evenodd" d="M86.3528 0.201744H110.718C111.884 0.201744 112.834 1.13994 112.834 2.29614V27.1712C112.834 28.3286 111.884 29.268 110.718 29.268H86.3528C85.1885 29.268 84.2424 28.3286 84.2424 27.1712V2.29614C84.2424 1.13994 85.1885 0.201744 86.3528 0.201744ZM93.0605 6.70238C93.0605 5.32354 91.9587 4.20347 90.603 4.20347C89.2438 4.20347 88.1436 5.32354 88.1436 6.70238C88.1436 8.08243 89.2438 9.2025 90.603 9.2025C91.9587 9.2025 93.0605 8.08243 93.0605 6.70238ZM88.4816 24.97H92.7225V11.0987H88.4816V24.97ZM99.4498 11.0987H95.3825V24.9701H99.6195V18.1082C99.6195 16.299 99.9583 14.5467 102.165 14.5467C104.339 14.5467 104.368 16.6159 104.368 18.2244V24.9701H108.606V17.3615C108.606 13.6271 107.813 10.7539 103.519 10.7539C101.456 10.7539 100.073 11.9035 99.5066 12.9941H99.4498V11.0987Z" fill="#444444"/>
</svg>
