<svg width="68" height="20" viewBox="0 0 68 20" fill="none" xmlns="http://www.w3.org/2000/svg">
<path fill-rule="evenodd" clip-rule="evenodd" d="M33.5547 1.38935H31.1153V4.39561H29.801V6.5649H31.1153V14.1581H33.5547V6.5649H34.8889V4.39561H33.5547V1.38935ZM27.5147 0C26.6187 0 25.9136 0.704199 25.9136 1.61771C25.9136 2.51175 26.6187 3.21633 27.5147 3.21633C28.4481 3.21633 29.1536 2.51175 29.1536 1.61771C29.1536 0.704199 28.4481 0 27.5147 0ZM66.2898 4.16789C65.8714 4.16789 65.5469 3.84424 65.5469 3.42523C65.5469 3.0256 65.8714 2.70194 66.2898 2.70194C66.6907 2.70194 67.014 3.0256 67.014 3.42523C67.014 3.84424 66.6907 4.16789 66.2898 4.16789ZM66.2899 2.5884C65.8141 2.5884 65.4332 2.96885 65.4332 3.42527C65.4332 3.90107 65.8141 4.2819 66.2899 4.2819C66.7475 4.2819 67.1288 3.90107 67.1288 3.42527C67.1288 2.96885 66.7475 2.5884 66.2899 2.5884ZM37.7272 8.25924C38.0513 6.96528 39.0423 6.242 40.3189 6.242C41.5959 6.242 42.5479 6.94581 42.8532 8.25924H37.7272ZM40.3757 4.09127C37.442 4.09127 35.2122 6.33731 35.2122 9.32485C35.2122 12.2742 37.2516 14.4437 40.414 14.4437C42.167 14.4437 43.7298 13.797 44.8731 12.5785L43.2343 10.9616C42.4338 11.7229 41.5764 12.2742 40.4711 12.2742C39.1378 12.2742 38.1276 11.5129 37.7848 10.2384H45.387V9.64851C45.387 6.31783 43.3298 4.09127 40.3757 4.09127ZM61.9642 4.09128C60.764 4.09128 59.7353 4.54761 59.0111 5.32845V0.266861H56.5717V14.158H59.0111V8.84897C59.0111 7.44104 59.907 6.46998 61.3927 6.46998C62.7839 6.46998 63.5462 7.32622 63.5462 8.84897V14.158H65.9852V8.41135C65.9852 5.70937 64.2887 4.09128 61.9642 4.09128ZM66.0992 3.40659V3.10155H66.2899C66.4429 3.10155 66.5002 3.1592 66.5002 3.25445C66.5002 3.34942 66.4429 3.40659 66.2899 3.40659H66.0992ZM66.6138 3.25439C66.6138 3.06416 66.4803 2.98752 66.2898 2.98752H65.9852V3.86285H66.0992V3.52049H66.2898L66.5002 3.86285H66.6325L66.4047 3.50188C66.5383 3.48202 66.6138 3.40653 66.6138 3.25439ZM51.4463 6.45127C52.4752 6.45127 53.3139 6.98386 53.9617 7.72661L55.6574 6.05173C54.7049 4.85265 53.1993 4.09127 51.485 4.09127C48.5317 4.09127 46.2065 6.33731 46.2065 9.26721C46.2065 12.198 48.5317 14.4437 51.485 14.4437C53.1993 14.4437 54.7049 13.6821 55.6574 12.4843L53.9617 10.8094C53.3329 11.5324 52.4752 12.084 51.4276 12.084C49.8647 12.084 48.6642 10.8663 48.6642 9.26721C48.6642 7.66858 49.8647 6.45127 51.4463 6.45127ZM26.3141 14.1581H28.7535V4.39557H26.3141V14.1581ZM8.66983 12.084C7.10701 12.084 5.86817 10.8476 5.86817 9.24862C5.86817 7.66861 7.10701 6.4513 8.66983 6.4513C10.2511 6.4513 11.4898 7.66861 11.4898 9.26724C11.4898 10.8663 10.2511 12.084 8.66983 12.084ZM8.66977 4.09127C5.71587 4.09127 3.39137 6.33731 3.39137 9.26721C3.39137 12.198 5.71587 14.4437 8.66977 14.4437C11.623 14.4437 13.9474 12.198 13.9474 9.26721C13.9474 6.33731 11.623 4.09127 8.66977 4.09127ZM0 14.158H2.43937V0.266861H0V14.158ZM20.0642 12.084C18.5021 12.084 17.2634 10.8476 17.2634 9.24862C17.2634 7.66861 18.5021 6.4513 20.0642 6.4513C21.6458 6.4513 22.8846 7.66861 22.8846 9.26724C22.8846 10.8663 21.6458 12.084 20.0642 12.084ZM25.2471 6.33731V4.39556H21.8167C21.2647 4.2061 20.6742 4.09127 20.0641 4.09127C17.111 4.09127 14.7866 6.33731 14.7866 9.26721C14.7866 12.198 17.111 14.4437 20.0641 14.4437C23.0174 14.4437 25.3426 12.198 25.3426 9.26721C25.3426 8.27781 25.0753 7.30761 24.542 6.58432L25.2471 6.33731ZM20.0641 17.6217C18.5021 17.6217 17.2633 16.4041 17.2633 14.8245H14.7866C14.7866 17.7552 17.111 20 20.0641 20C23.0174 20 25.3426 17.7552 25.3426 14.8245H22.865C22.865 16.4041 21.6262 17.6217 20.0641 17.6217Z" fill="#444444"/>
</svg>
