<svg width="98" height="29" viewBox="0 0 98 29" fill="none" xmlns="http://www.w3.org/2000/svg">
<path fill-rule="evenodd" clip-rule="evenodd" d="M48.6543 2.01451H45.1172V6.37358H43.2114V9.51906H45.1172V20.5292H48.6543V9.51906H50.5889V6.37358H48.6543V2.01451ZM39.8963 0C38.5972 0 37.5748 1.02109 37.5748 2.34568C37.5748 3.64204 38.5972 4.66368 39.8963 4.66368C41.2497 4.66368 42.2727 3.64204 42.2727 2.34568C42.2727 1.02109 41.2497 0 39.8963 0V0ZM96.1203 6.04349C95.5136 6.04349 95.043 5.57419 95.043 4.96663C95.043 4.38716 95.5136 3.91786 96.1203 3.91786C96.7015 3.91786 97.1702 4.38716 97.1702 4.96663C97.1702 5.57419 96.7015 6.04349 96.1203 6.04349V6.04349ZM96.1203 3.75318C95.4305 3.75318 94.8781 4.30483 94.8781 4.96664C94.8781 5.65655 95.4305 6.20875 96.1203 6.20875C96.7839 6.20875 97.3368 5.65655 97.3368 4.96664C97.3368 4.30483 96.7839 3.75318 96.1203 3.75318V3.75318ZM54.7044 11.9759C55.1743 10.0996 56.6113 9.05086 58.4624 9.05086C60.314 9.05086 61.6945 10.0714 62.1372 11.9759H54.7044ZM58.5447 5.93236C54.2909 5.93236 51.0577 9.1891 51.0577 13.521C51.0577 17.7976 54.0148 20.9434 58.6003 20.9434C61.1421 20.9434 63.4082 20.0056 65.066 18.2388L62.6897 15.8943C61.529 16.9983 60.2857 17.7976 58.6831 17.7976C56.7498 17.7976 55.2851 16.6936 54.788 14.8456H65.8111V13.9903C65.8111 9.16087 62.8281 5.93236 58.5447 5.93236V5.93236ZM89.8481 5.93236C88.1077 5.93236 86.6161 6.59403 85.566 7.72625V0.386953H82.0289V20.5292H85.566V12.831C85.566 10.7895 86.8651 9.38147 89.0194 9.38147C91.0366 9.38147 92.142 10.623 92.142 12.831V20.5292H95.6785V12.1965C95.6785 8.27859 93.2186 5.93236 89.8481 5.93236V5.93236ZM95.8439 4.93951V4.49719H96.1203C96.3422 4.49719 96.4253 4.58078 96.4253 4.7189C96.4253 4.85661 96.3422 4.93951 96.1203 4.93951H95.8439ZM96.59 4.7189C96.59 4.44308 96.3964 4.33194 96.1203 4.33194H95.6785V5.60118H95.8438V5.10475H96.1203L96.4252 5.60118H96.6172L96.2868 5.07776C96.4805 5.04898 96.59 4.9395 96.59 4.7189V4.7189ZM74.5971 9.35435C76.089 9.35435 77.3051 10.1266 78.2445 11.2036L80.7032 8.77502C79.3222 7.03634 77.139 5.93236 74.6532 5.93236C70.3711 5.93236 66.9994 9.1891 66.9994 13.4375C66.9994 17.6871 70.3711 20.9434 74.6532 20.9434C77.139 20.9434 79.3222 19.8391 80.7032 18.1022L78.2445 15.6737C77.3327 16.722 76.089 17.5218 74.5701 17.5218C72.3039 17.5218 70.5631 15.7561 70.5631 13.4375C70.5631 11.1195 72.3039 9.35435 74.5971 9.35435V9.35435ZM38.1554 20.5292H41.6926V6.37357H38.1554V20.5292ZM12.5713 17.5218C10.3052 17.5218 8.50885 15.729 8.50885 13.4105C8.50885 11.1194 10.3052 9.35434 12.5713 9.35434C14.8641 9.35434 16.6603 11.1194 16.6603 13.4374C16.6603 15.7561 14.8641 17.5218 12.5713 17.5218V17.5218ZM12.5712 5.93236C8.28801 5.93236 4.91749 9.1891 4.91749 13.4375C4.91749 17.6871 8.28801 20.9434 12.5712 20.9434C16.8534 20.9434 20.2237 17.6871 20.2237 13.4375C20.2237 9.1891 16.8534 5.93236 12.5712 5.93236V5.93236ZM0 20.5292H3.53708V0.386953H0V20.5292ZM29.0931 17.5218C26.8281 17.5218 25.0319 15.729 25.0319 13.4105C25.0319 11.1194 26.8281 9.35434 29.0931 9.35434C31.3865 9.35434 33.1826 11.1194 33.1826 13.4374C33.1826 15.7561 31.3865 17.5218 29.0931 17.5218V17.5218ZM36.6084 9.1891V6.37356H31.6343C30.8339 6.09885 29.9776 5.93236 29.093 5.93236C24.8109 5.93236 21.4405 9.1891 21.4405 13.4375C21.4405 17.6871 24.8109 20.9434 29.093 20.9434C33.3752 20.9434 36.7468 17.6871 36.7468 13.4375C36.7468 12.0028 36.3592 10.596 35.586 9.54727L36.6084 9.1891ZM29.093 25.5514C26.828 25.5514 25.0318 23.7859 25.0318 21.4956H21.4405C21.4405 25.7451 24.8109 29 29.093 29C33.3752 29 36.7468 25.7451 36.7468 21.4956H33.1543C33.1543 23.7859 31.358 25.5514 29.093 25.5514V25.5514Z" fill="#444444"/>
</svg>
