<svg width="70" height="13" viewBox="0 0 70 13" fill="none" xmlns="http://www.w3.org/2000/svg">
<path fill-rule="evenodd" clip-rule="evenodd" d="M23.6388 0.261404H19.8962V5.22068H15.9985V0.261404H12.2544V12.7395H15.9985V7.83058H19.8962V12.7395H23.6388V0.261404ZM36.6646 10.2329V0.261404H32.9203V12.7395H39.6902L40.2534 10.2329H36.6646ZM26.4085 12.7395H30.1517V0.261404H26.4085V12.7395ZM41.5874 12.7395H45.33V0.261404H41.5874V12.7395ZM63.79 3.44514C63.79 2.76709 64.4573 2.45294 65.5336 2.45294C66.7129 2.45294 67.9957 2.71434 68.8664 3.08124L68.5599 0.365614C67.5853 0.157182 66.7129 0 65.1238 0C62.0983 0 60.0474 1.21435 60.0474 3.76014C60.0474 8.14408 65.8946 7.2576 65.8946 9.29346C65.8946 10.0759 65.3287 10.4926 63.9436 10.4926C62.7152 10.4926 60.8157 10.0759 59.6888 9.5019L60.0994 12.3747C61.2269 12.7916 62.765 13 63.9963 13C67.1237 13 69.6883 11.9555 69.6883 8.82213C69.6883 4.64684 63.79 5.42996 63.79 3.44514ZM53.2288 9.7633C56.7136 9.7633 58.919 7.9348 58.919 4.75106C58.919 1.25295 56.5608 0 52.714 0C51.2276 0 49.4318 0.104216 48.1498 0.261398V12.7395H51.8949V9.7633H53.2288ZM55.2259 4.80317C55.2259 6.42152 54.4587 7.51793 52.5094 7.51793H51.895V2.3631C52.1123 2.35023 52.3172 2.35023 52.5094 2.35023C54.3548 2.35023 55.2259 3.23692 55.2259 4.80317ZM5.07644 9.7633C8.56296 9.7633 10.7675 7.9348 10.7675 4.75106C10.7675 1.25295 8.40845 0 4.56361 0C3.07592 0 1.28112 0.104216 0 0.261398V12.7395H3.74241V9.7633H5.07644ZM7.07693 4.80317C7.07693 6.42152 6.30716 7.51793 4.3587 7.51793H3.74238V2.3631C3.96159 2.35023 4.16647 2.35023 4.3587 2.35023C6.20324 2.35023 7.07693 3.23692 7.07693 4.80317Z" fill="#444444"/>
</svg>
