<svg width="102" height="19" viewBox="0 0 102 19" fill="none" xmlns="http://www.w3.org/2000/svg">
<path fill-rule="evenodd" clip-rule="evenodd" d="M34.5491 0.382043H29.0791V7.63021H23.3824V0.382043H17.9102V18.6192H23.3824V11.4447H29.0791V18.6192H34.5491V0.382043ZM53.5867 14.9558V0.382043H48.1143V18.6192H58.0087L58.8318 14.9558H53.5867ZM38.597 18.6192H44.0679V0.382043H38.597V18.6192ZM60.7816 18.6192H66.2516V0.382043H60.7816V18.6192ZM93.2315 5.0352C93.2315 4.04421 94.2068 3.58507 95.7798 3.58507C97.5034 3.58507 99.3783 3.96711 100.651 4.50335L100.203 0.534359C98.7785 0.229727 97.5034 0 95.1809 0C90.759 0 87.7615 1.77483 87.7615 5.4956C87.7615 11.9029 96.3075 10.6073 96.3075 13.5828C96.3075 14.7264 95.4804 15.3353 93.4561 15.3353C91.6607 15.3353 88.8844 14.7264 87.2375 13.8874L87.8376 18.0861C89.4855 18.6954 91.7334 19 93.5331 19C98.1038 19 101.852 17.4734 101.852 12.8939C101.852 6.79153 93.2315 7.9361 93.2315 5.0352V5.0352ZM77.7959 14.2694C82.8891 14.2694 86.1124 11.597 86.1124 6.94385C86.1124 1.83124 82.6658 0 77.0436 0C74.8711 0 72.2464 0.152316 70.3728 0.382043V18.6192H75.8465V14.2694H77.7959ZM80.7148 7.02C80.7148 9.38529 79.5935 10.9877 76.7445 10.9877H75.8465V3.45374C76.1641 3.43494 76.4636 3.43494 76.7445 3.43494C79.4416 3.43494 80.7148 4.73088 80.7148 7.02V7.02ZM7.41941 14.2694C12.5151 14.2694 15.7371 11.597 15.7371 6.94385C15.7371 1.83124 12.2893 0 6.66989 0C4.49557 0 1.87241 0.152316 0 0.382043V18.6192H5.46967V14.2694H7.41941ZM10.3432 7.02C10.3432 9.38529 9.21814 10.9877 6.3704 10.9877H5.46963V3.45374C5.79001 3.43494 6.08945 3.43494 6.3704 3.43494C9.06627 3.43494 10.3432 4.73088 10.3432 7.02V7.02Z" fill="#444444"/>
</svg>
